<?xml version="1.0" encoding="utf-8"?>
<!-- Generator: Adobe Illustrator 27.5.0, SVG Export Plug-In . SVG Version: 6.00 Build 0)  -->
<svg version="1.1"
	 id="svg2" xmlns:cc="http://creativecommons.org/ns#" xmlns:inkscape="http://www.inkscape.org/namespaces/inkscape" xmlns:svg="http://www.w3.org/2000/svg" xmlns:dc="http://purl.org/dc/elements/1.1/" xmlns:rdf="http://www.w3.org/1999/02/22-rdf-syntax-ns#" xmlns:sodipodi="http://sodipodi.sourceforge.net/DTD/sodipodi-0.dtd"
	 xmlns="http://www.w3.org/2000/svg" xmlns:xlink="http://www.w3.org/1999/xlink" x="0px" y="0px" viewBox="0 0 623.6 358.3"
	 style="enable-background:new 0 0 623.6 358.3;" xml:space="preserve">
<style type="text/css">
	.st0{fill:#245296;fill-opacity:0.8081;stroke:#245296;stroke-width:2;stroke-miterlimit:1;}
	.st1{fill:#245296;stroke:#245296;stroke-width:2;stroke-miterlimit:1;}
	.st2{fill:#DCDCDC;stroke:#000000;stroke-miterlimit:1;}
	.st3{fill:none;stroke:#57AB0B;stroke-miterlimit:1;}
	.st4{fill:none;stroke:#57AB0B;stroke-miterlimit:1;stroke-dasharray:3.0636,3.0636;}
	.st5{fill:none;stroke:#57AB0B;stroke-miterlimit:1;stroke-dasharray:2.9871,2.9871;}
	.st6{fill:#B60000;}
	.st7{font-family:'Helvetica';}
	.st8{font-size:12px;}
	.st9{fill:#245296;}
	.st10{fill:#57AB0B;}
	.st11{fill:none;stroke:#245296;stroke-miterlimit:1;}
	.st12{fill:none;stroke:#245296;stroke-miterlimit:1;stroke-dasharray:3.0116,3.0116;}
	.st13{fill:none;stroke:#245296;stroke-miterlimit:1;stroke-dasharray:3,3;}
	.st14{fill:none;stroke:#57AB0B;stroke-miterlimit:1;stroke-dasharray:3.0398,3.0398;}
	.st15{fill:#B60000;stroke:#B60000;stroke-width:2;stroke-miterlimit:1;}
	.st16{fill:none;stroke:#B60000;stroke-miterlimit:1;}
	.st17{fill:#204A87;stroke:#204A87;stroke-width:3;stroke-miterlimit:1;}
	.st18{font-family:'Helvetica-Oblique';}
	.st19{font-size:6.996px;}
</style>
<sodipodi:namedview  bordercolor="#666666" borderopacity="1.0" gridtolerance="10000" guidetolerance="10" id="base" inkscape:current-layer="g5737" inkscape:cx="-14.142136" inkscape:cy="411.8897" inkscape:deskcolor="#d1d1d1" inkscape:document-units="px" inkscape:object-nodes="true" inkscape:pagecheckerboard="0" inkscape:pageopacity="0.0" inkscape:pageshadow="2" inkscape:showpageshadow="2" inkscape:snap-global="false" inkscape:snap-intersection-line-segments="false" inkscape:window-height="1361" inkscape:window-maximized="1" inkscape:window-width="2560" inkscape:window-x="-9" inkscape:window-y="-9" inkscape:zoom="1.4142136" objecttolerance="10000" pagecolor="#ffffff" showgrid="false">
	<inkscape:grid  enabled="true" id="grid4524" type="xygrid" visible="true"></inkscape:grid>
</sodipodi:namedview>
<defs>
	
		<inkscape:perspective  id="perspective10" inkscape:persp3d-origin="372.04724 : 350.78739 : 1" inkscape:vp_x="0 : 526.18109 : 1" inkscape:vp_y="0 : 1000 : 0" inkscape:vp_z="744.09448 : 526.18109 : 1" sodipodi:type="inkscape:persp3d">
		</inkscape:perspective>
</defs>
<g id="layer1" transform="translate(-13.91304,-12.940308)" inkscape:groupmode="layer" inkscape:label="Layer 1">
	
		<path id="path4459" sodipodi:cx="1213.4388" sodipodi:cy="436.75766" sodipodi:rx="0" sodipodi:ry="0" sodipodi:type="arc" class="st0" d="
		M1213.4,37.2L1213.4,37.2L1213.4,37.2z"/>
	
		<path id="path5005" sodipodi:cx="1195.5312" sodipodi:cy="511.69421" sodipodi:rx="0" sodipodi:ry="0" sodipodi:type="arc" class="st1" d="
		M1195.5,112.2L1195.5,112.2L1195.5,112.2z"/>
</g>
<path id="path4807" inkscape:label="Face" class="st2" d="M178.1,238l13.2,23.8l-13.2,48.6l-13.2-23.8L178.1,238z"/>
<path id="path4815" inkscape:label="Face" class="st2" d="M115.5,294.5l-36.2-40.7l13.2-48.6l49.4-7.9l36.2,40.7l-13.2,48.6
	L115.5,294.5z"/>
<path id="path4805" inkscape:label="Face" class="st2" d="M92.4,350.1l-23-16.9l-36.2-40.7L20,268.6l23,16.9l36.2,40.7L92.4,350.1z"
	/>
<path id="path4809" inkscape:label="Face" class="st2" d="M79.2,326.2L43,285.5l36.2-31.7l36.2,40.7L79.2,326.2z"/>
<path id="path4811" inkscape:label="Face" class="st2" d="M164.9,286.6l13.2,23.8l-36.2,31.7L92.5,350l-13.2-23.8l36.2-31.7
	L164.9,286.6z"/>
<path id="path4813" inkscape:label="Face" class="st2" d="M92.4,205.1l-23-16.9l49.4-7.9l23,16.9L92.4,205.1z"/>
<path id="path4817" inkscape:label="Face" class="st2" d="M79.2,253.8L43,285.5l-23-16.9L33.1,220l36.2-31.7l23,16.9L79.2,253.8z"/>
<g id="path4447" sodipodi:nodetypes="cc">
	<g>
		<line class="st3" x1="105.7" y1="265.1" x2="106.9" y2="266"/>
		<line class="st4" x1="109.4" y1="267.9" x2="137.7" y2="288.8"/>
		<line class="st3" x1="139" y1="289.7" x2="140.2" y2="290.6"/>
	</g>
</g>
<g id="path4455">
	<g>
		<line class="st3" x1="105.7" y1="265.1" x2="106.9" y2="264.1"/>
		<line class="st5" x1="109.2" y1="262.2" x2="126.3" y2="247.8"/>
		<line class="st3" x1="127.5" y1="246.8" x2="128.6" y2="245.9"/>
	</g>
</g>
<text transform="matrix(1 0 0 1 162.7542 255.4914)" class="st6 st7 st8">U</text>
<text transform="matrix(1 0 0 1 179.3304 271.8176)" class="st6 st7 st8">X</text>
<text transform="matrix(1 0 0 1 156.1214 298.3684)" class="st6 st7 st8">W</text>
<text transform="matrix(1 0 0 1 135.0189 302.4113)" class="st6 st7 st8">K</text>
<text transform="matrix(1 0 0 1 129.5003 240.76)" class="st6 st7 st8">L</text>
<text transform="matrix(1 0 0 1 95.1663 264.842)" class="st9 st7 st8">Γ</text>
<text transform="matrix(1 0 0 1 110.2103 252.7209)" class="st10 st7 st8">Λ</text>
<text transform="matrix(1 0 0 1 122.9281 265.2463)" class="st10 st7 st8">Δ</text>
<text transform="matrix(1 0 0 1 112.5794 285.7844)" class="st10 st7 st8">Σ</text>
<g id="path3567">
	<g>
		<line class="st11" x1="105.6" y1="265" x2="105.6" y2="263.5"/>
		<line class="st12" x1="105.6" y1="260.5" x2="105.6" y2="195.8"/>
		<line class="st11" x1="105.6" y1="194.3" x2="105.6" y2="192.8"/>
	</g>
</g>
<path id="path3577" class="st13" d="M79.2,290l26.5-24.9"/>
<g id="path4359">
	<g>
		<line class="st11" x1="178.1" y1="274.2" x2="197" y2="276.3"/>
		<g>
			<polygon class="st9" points="194.8,279 205.8,277.3 195.4,273.2 			"/>
		</g>
	</g>
</g>
<g id="path4361">
	<g>
		<line class="st11" x1="105.6" y1="192.8" x2="105.6" y2="182.9"/>
		<g>
			<polygon class="st9" points="108.5,184.9 105.6,174.1 102.7,184.9 			"/>
		</g>
	</g>
</g>
<g id="path4363">
	<g>
		<line class="st11" x1="69" y1="299.6" x2="79.2" y2="290"/>
		<g>
			<polygon class="st9" points="72.4,300.4 62.5,305.7 68.4,296.1 			"/>
		</g>
	</g>
</g>
<g id="path5009" sodipodi:nodetypes="cc">
	<g>
		<line class="st3" x1="105.7" y1="265.1" x2="107.2" y2="265.3"/>
		<line class="st14" x1="110.2" y1="265.7" x2="175.1" y2="273.9"/>
		<line class="st3" x1="176.6" y1="274" x2="178.1" y2="274.2"/>
	</g>
</g>
<g>
	
		<path id="path4984" sodipodi:cx="1276.5045" sodipodi:cy="589.82593" sodipodi:rx="2.7400389" sodipodi:ry="2.7400389" sodipodi:type="arc" class="st15" d="
		M140.9,290.6c0,0.4-0.3,0.7-0.7,0.7s-0.7-0.3-0.7-0.7s0.3-0.7,0.7-0.7C140.5,289.8,140.9,290.1,140.9,290.6z"/>
	
		<path id="path4986" sodipodi:cx="1276.5045" sodipodi:cy="589.82593" sodipodi:rx="2.7400389" sodipodi:ry="2.7400389" sodipodi:type="arc" class="st15" d="
		M165.5,286.5c0,0.4-0.3,0.7-0.7,0.7s-0.7-0.3-0.7-0.7s0.3-0.7,0.7-0.7S165.5,286.1,165.5,286.5z"/>
	
		<path id="path5012" sodipodi:cx="1276.5045" sodipodi:cy="589.82593" sodipodi:rx="2.7400389" sodipodi:ry="2.7400389" sodipodi:type="arc" class="st15" d="
		M129.5,246.2c0,0.4-0.3,0.7-0.7,0.7s-0.7-0.3-0.7-0.7s0.3-0.7,0.7-0.7C129.2,245.4,129.5,245.8,129.5,246.2z"/>
	
		<path id="path5014" sodipodi:cx="1276.5045" sodipodi:cy="589.82593" sodipodi:rx="2.7400389" sodipodi:ry="2.7400389" sodipodi:type="arc" class="st15" d="
		M172.1,262.4c0,0.4-0.3,0.7-0.7,0.7s-0.7-0.3-0.7-0.7s0.3-0.7,0.7-0.7C171.8,261.6,172.1,262,172.1,262.4z"/>
	
		<path id="path5003" sodipodi:cx="1276.5045" sodipodi:cy="589.82593" sodipodi:rx="2.7400389" sodipodi:ry="2.7400389" sodipodi:type="arc" class="st15" d="
		M178.5,274.2c0,0.4-0.3,0.7-0.7,0.7s-0.7-0.3-0.7-0.7s0.3-0.7,0.7-0.7C178.1,273.5,178.5,273.8,178.5,274.2z"/>
</g>
<g>
	<path id="path4453" class="st16" d="M128.6,245.9l42.9,16.4"/>
	<path id="path4457" class="st16" d="M140.2,290.6l-11.6-44.7l36.3,40.7l13.2-12.4l-6.6-11.9"/>
</g>
<path id="path5790" sodipodi:cx="1276.5045" sodipodi:cy="589.82593" sodipodi:rx="2.7400389" sodipodi:ry="2.7400389" sodipodi:type="arc" class="st17" d="
	M106.4,265.1c0,0.4-0.3,0.7-0.7,0.7c-0.4,0-0.7-0.3-0.7-0.7s0.3-0.7,0.7-0.7C106,264.4,106.4,264.7,106.4,265.1z"/>
<text transform="matrix(1 0 0 1 72.6722 309.3156)" class="st9 st18 st8">k</text>
<text transform="matrix(1 0 0 1 78.6724 310.7238)" class="st9 st18 st19">x</text>
<text transform="matrix(1 0 0 1 95.0033 174.0627)" class="st9 st18 st8">k</text>
<text transform="matrix(1 0 0 1 101.0034 175.4708)" class="st9 st18 st19">z</text>
<text transform="matrix(1 0 0 1 193.679 289.8127)" class="st9 st18 st8">k</text>
<text transform="matrix(1 0 0 1 199.6792 291.2208)" class="st9 st18 st19">y</text>
<text transform="matrix(1 0 0 1 9.3767 169.0617)" class="st7 st8">(b)</text>
<text transform="matrix(1 0 0 1 9.3767 16.4855)" class="st7 st8">(a)</text>
<text transform="matrix(1 0 0 1 225.7936 16.4855)" class="st7 st8">(c)</text>
</svg>
